<svg xmlns="http://www.w3.org/2000/svg" viewBox="0 0 737.28 737.28"><path fill="#19a7fb" d="M439.59 88.91c6.06-1.9 8.13-1.68 17.68-.13 6 2.69 5.96 2.82 11 6.75 6.32 5.9 11.96 12.24 17.64 18.75l4.42 4.42a267.5 267.5 0 0 1 12.13 13.23c2.7 2.9 5.41 5.8 8.13 8.69 6.2 6.59 12.31 13.24 18.34 19.99l5.65 6.2c4.43 4.88 8.79 9.79 13.1 14.76l6.83 7.86a4848.03 4848.03 0 0 1 26.88 31.3c6.2 7.41 12.16 15 18.13 22.6 2.5 3.02 5 6.03 7.52 9.03 29.3 35.5 56.32 75.2 76.31 116.71 7.98 18.6 15.58 37.54 19.85 57.36a355.67 355.67 0 0 1 4.42 72.8c-2.58 22.21-6.65 44.03-14.34 65.07a233.02 233.02 0 0 1-5.52 12.14l-2.41 6.13c-7.22 16.53-16.58 31.33-27.37 45.7a422.47 422.47 0 0 1-19.85 23.17c-2.84 3.2-2.84 3.2-5.72 6.48-12.21 12.87-25.86 23.47-40.6 33.23-18.73 11.84-37.42 21.55-58.47 28.68l-5.44 2.27c-13.94 5.34-28.4 8.5-43.09 10.96-12.09 1.35-23.97 1.3-36.12 1.31l-7.15.04c-11.56.01-22.56-.22-33.94-2.45l-10.34-1.86a285.96 285.96 0 0 1-59.15-19.1c-21.74-10.46-41.35-23.63-60.04-38.88-16-13.9-31.17-28.89-43.64-46.05-8.91-13-17.06-25.95-23.85-40.19l-3.08-6.4c-8.66-19.28-14.19-39.7-18.3-60.4-3.76-21.66-2.85-44.09-1.85-66 1.55-19.65 6.73-37.83 12.89-56.43 13.76-35.45 33.03-67.13 54.74-98.24 19.18-27.04 39.65-52.94 61.07-78.24l4.28-5.38c9.2-11.42 18.98-22.35 28.81-33.22 1.2-1.4 2.41-2.78 3.66-4.2 5.65-6.43 11.49-12.68 17.3-18.97a922.07 922.07 0 0 0 14.75-16.4c5.63-6.4 11.45-12.63 17.24-18.9l4.82-5.37 5.1-5.65 3.74-4.17c3.82-4.2 7.76-8.3 11.7-12.38 8.83-5.51 8.83-5.51 12.14-6.62Zm7.72 52.95a321.27 321.27 0 0 0-20.96 22.06c-2.56 2.76-5.14 5.52-7.72 8.27a541.48 541.48 0 0 0-15.44 17.1c-13.3 15.4-13.3 15.4-20.13 22.88a460.64 460.64 0 0 0-15.17 17.93l-9.92 11.03c-3.33 4.03-6.63 8.08-9.93 12.13l-6.13 7.24a787.28 787.28 0 0 0-14.83 18.13l-3.34 4.06a475.53 475.53 0 0 0-22.03 29.03c-2.38 3.29-4.77 6.57-7.17 9.86-20.51 28.46-38.71 58.86-52.35 91.26a187.8 187.8 0 0 0-9.96 37.86c-1.62 23.76-.73 47.12 3.3 70.59 3.76 16.22 9.34 31.55 16.41 46.6a284.44 284.44 0 0 0 27.71 42.74 390.6 390.6 0 0 0 8.83 8.82l5.51 7.72c3.95 3.43 8.02 6.72 12.14 9.93l4.37 3.47a252.1 252.1 0 0 0 30.92 20.8l5.86 3.38a260.37 260.37 0 0 0 57.84 21.85c13.83 2.64 27.47 2.86 41.5 2.9 2.14 0 4.27 0 6.47.02 17.02-.15 32.8-2.23 49.37-6.37a274.11 274.11 0 0 0 56.25-23.99c14.53-9.21 27.1-19.23 39.7-30.88l5.52-4.41v-2.21h2.21c10.74-11.4 19.57-24.08 27.58-37.5l5.51-8.83c3.45-8.03 6.7-16.14 9.93-24.26l2.34-5.52c4.74-12.65 7.24-25.46 9.1-38.82 1.13-10.46 1.21-20.84 1.17-31.35l.07-6.33c0-13.75-1.68-25.96-4.96-39.31-5.9-20.56-13.7-39.86-24.27-58.46a698.46 698.46 0 0 0-69.49-98.17L551 257.67c-4.03-4.79-8.07-9.57-12.13-14.34l-4.9-6a858.33 858.33 0 0 0-28.2-32.6l-4.82-5.38a2943.16 2943.16 0 0 0-17.23-18.89l-5.93-6.48a2913.1 2913.1 0 0 0-13.65-14.75c-3.9-4.2-7.75-8.43-11.51-12.75l-3.1-3.52-2.21-1.1Z"/><path fill="#19a7fb" d="M189.2 3.62c3.18-.48 2.37-.48 5.61-.96 3.92.48 7.29 2.96 9.48 4.69 9.6 7.12 13.66 11.74 21.32 20.9 12.85 16.14 25.35 32.8 35.15 50.96a84.38 84.38 0 0 1 5.66 18.53c.27 4.68.38 9.37.34 14.06l-.01 7.09c-.33 6.42-.33 6.42-2.54 15.25a91.44 91.44 0 0 1-9.51 19.37c-5.35 6.64-10.57 12.47-16.96 18.13-9.84 8.54-17.17 8.65-26.47 12.13-5.4.34-8.63 1-15.9 1.62l-8.02.07c-8.33-.55-9.17-1.69-16.82-3.6-9-3.37-16.41-8.12-24.34-13.53-4.82-4.07-4.82-4.07-8.82-8.82-5.38-7.5-10.18-14.54-13.79-23.03-1.5-5.13-2.7-10.36-3.86-15.58-.4-9.85.27-19 2.2-28.68 2.1-7.32 4.7-13.9 8.28-20.62 10.12-17.41 22.16-33.02 35.85-47.76l3.86-4.55c4.3-4.77 8.9-8.94 13.78-13.1 1.1-.73 4.4-1.82 5.52-2.57Zm2.22 47.8c-10.56 11.44-20.18 23.8-27.86 37.36-3.93 6.97-3.93 6.97-5.23 11.16-1.88 11.89-1.88 10.85 0 22.06 3.71 9.36 3.71 9.36 7.85 14.55 4.26 4.47 4.26 4.47 10.07 8 4.8 2.79 4.8 2.79 8.55 3.93 8.45.64 8.45.64 17.65 0 6.65-2.36 6.65-2.36 12.13-6.62 5.53-5.16 5.53-5.16 9.92-11.03l4.42-9.93c.82-9.24.82-9.24 0-18.75-2.25-6.8-5.14-12.54-8.55-18.82-7.63-11.59-16.94-22.11-26.75-31.92-1.05-.79-1.28-.82-2.2 0Z"/><path fill="#19a7fb" d="M292.89 435.25c6.38-2.13 8.86-1.17 14.34 0l8.82 6.62c4.42 5.52 4.1 4.77 5.38 8.83.43 8.93.52 16.76.61 25.7a206.61 206.61 0 0 0 3.94 37.17c4.2 12.92 9.8 24.6 16.55 36.4 4.2 5.49 8.35 10.56 13.23 15.44.37 1.09 11.27 10.77 13.1 12.34 7.77 6.1 15.63 10.68 24.4 15.23 12.31 5.18 24.43 8.38 37.5 11.03l6.07.76 4.96 1.45c6.14 4.96 8.57 2.82 11.03 9.93.37.72 1.11 3.66 1.49 4.4 1.07 6.45 1.6 7.83-1.22 14.8-4.66 9.21-5.56 6.2-7.81 9.2-3.62.97-6.77 2.17-7.9 2.55-9.82 1.45-7.79.34-17.65-.07a259.24 259.24 0 0 1-48.8-16.9c-14.16-7.73-27-16.96-39.43-27.22-9.84-9.14-17.74-18.74-25.37-29.78-9.08-14.22-15.65-28.5-21.24-44.4-3.23-10.83-5.49-21.53-6.34-32.81a608.8 608.8 0 0 1 0-39.7l2.2-8.83 4.42-6.62 7.72-5.52Z"/><path fill="#19a7fb" d="M87.96 203.64c3.17-.48 2.36-.48 5.6-.97 3.92.48 7.28 2.96 9.48 4.69 9.6 7.12 13.66 11.74 21.32 20.9 12.85 16.14 25.35 32.8 35.15 50.96a84.38 84.38 0 0 1 5.66 18.53c.26 4.68.38 9.38.34 14.07l-.01 7.08c-.33 6.43-.33 6.43-2.54 15.25a91.44 91.44 0 0 1-9.51 19.37c-5.35 6.65-10.57 12.47-16.96 18.13-10.67 9.13-17.18 8.65-26.47 12.14-5.4.34-8.63 1-15.9 1.62l-8.02.06c-8.33-.55-9.17-1.68-16.82-3.6-9-3.36-16.42-8.11-24.34-13.53-4.83-4.06-4.83-4.06-8.82-8.82-5.38-7.49-10.18-14.53-13.8-23.02-1.5-5.14-2.7-10.36-3.85-15.58-.4-9.86.27-19 2.2-28.68 2.1-7.32 4.7-13.9 8.28-20.63 10.11-17.4 22.15-33.01 35.84-47.76l3.86-4.55c4.3-4.76 8.91-8.93 13.8-13.1 1.08-.72 4.38-1.81 5.5-2.56Zm2.2 47.79c-10.55 11.45-20.17 23.8-27.85 37.36-3.94 6.97-3.94 6.97-5.24 11.17-1.87 11.88-1.87 10.85 0 22.06 3.72 9.35 3.72 9.35 7.86 14.55 4.26 4.46 4.26 4.46 10.07 8 4.8 2.78 4.8 2.78 8.55 3.92 8.45.65 8.45.65 17.64 0 6.66-2.36 6.66-2.36 12.14-6.62 5.53-5.15 5.53-5.15 9.92-11.03l4.41-9.92c.83-9.24.83-9.24 0-18.75-2.24-6.81-5.13-12.54-8.54-18.82-7.63-11.6-16.95-22.12-26.75-31.92-1.06-.8-1.28-.83-2.2 0Z"/></svg>
