<?xml version="1.0" encoding="UTF-8"?>
<svg width="40" height="40" fill="none" xmlns="http://www.w3.org/2000/svg">
  <path d="M34.3 15.9v12.8L20 37 5.7 28.7V12.2L20 3.9l11 6.4 1.7-1L20 2 4 11.2v18.5L20 39l16-9.2V15l-1.7 1Z" fill="url(#a)"/>
  <path d="M16 28.8h-2.4v-8h8a2.9 2.9 0 0 0 2.6-4c-.1-.4-.3-.7-.6-1a2.8 2.8 0 0 0-2-.8h-8v-2.4h8a5.3 5.3 0 0 1 5.3 5.2c0 1.1-.3 2.2-1 3-.5.9-1.3 1.5-2.3 2-.9.2-1.8.4-2.8.4H16v5.6Z" fill="url(#b)"/>
  <path d="M26.8 28.6H24L22 24.8c.8 0 1.7-.2 2.5-.5l2.4 4.3Z" fill="url(#c)"/>
  <path d="m32.7 13.2 1.6 1 1.7-1v-2l-1.7-1-1.6 1v2Z" fill="url(#d)"/>
  <defs>
    <linearGradient id="a" x1="36" y1="11.2" x2="2" y2="24.8" gradientUnits="userSpaceOnUse">
      <stop stop-color="#C200FB"/>
      <stop offset=".5" stop-color="#3772FF"/>
      <stop offset="1" stop-color="#5AC4BE"/>
    </linearGradient>
    <linearGradient id="b" x1="36" y1="11.2" x2="2" y2="24.8" gradientUnits="userSpaceOnUse">
      <stop stop-color="#C200FB"/>
      <stop offset=".5" stop-color="#3772FF"/>
      <stop offset="1" stop-color="#5AC4BE"/>
    </linearGradient>
    <linearGradient id="c" x1="36" y1="11.2" x2="2" y2="24.8" gradientUnits="userSpaceOnUse">
      <stop stop-color="#C200FB"/>
      <stop offset=".5" stop-color="#3772FF"/>
      <stop offset="1" stop-color="#5AC4BE"/>
    </linearGradient>
    <linearGradient id="d" x1="36" y1="11.2" x2="2" y2="24.8" gradientUnits="userSpaceOnUse">
      <stop stop-color="#C200FB"/>
      <stop offset=".5" stop-color="#3772FF"/>
      <stop offset="1" stop-color="#5AC4BE"/>
    </linearGradient>
  </defs>
</svg> 