<?xml version="1.0" encoding="UTF-8" standalone="no"?>
<!DOCTYPE svg PUBLIC "-//W3C//DTD SVG 1.1//EN" "http://www.w3.org/Graphics/SVG/1.1/DTD/svg11.dtd">
<svg width="100%" height="100%" viewBox="0 0 512 512" version="1.1" xmlns="http://www.w3.org/2000/svg" xmlns:xlink="http://www.w3.org/1999/xlink" xml:space="preserve" xmlns:serif="http://www.serif.com/" style="fill-rule:evenodd;clip-rule:evenodd;">
    <g>
        <path d="M320,175.55C319.78,177.337 319.68,179.333 319.7,181.54C319.72,183.15 318.99,184.71 317.82,185.59C313.04,189.163 307.23,192.81 300.39,196.53" style="fill:none;fill-rule:nonzero;stroke:rgb(123,230,76);stroke-width:2px;"/>
        <path d="M436.698,392.315C447.873,392.523 451.731,392.204 453.716,394.541C454.338,395.273 455.015,394.778 455.805,395.27C455.949,395.359 457.707,399.032 458.618,399.845C458.808,400.015 458.395,400.2 459.857,402.785C459.899,402.859 460.209,404.09 460.264,404.461C458.307,406.713 457.785,405.782 453.381,407.072C451.849,407.521 451.82,406.744 450.261,407.066C443.827,408.398 444.012,406.588 442.593,405.855C439.3,404.152 438.995,401.786 436.975,396.782C436.612,395.882 436.444,392.493 436.899,392.299" style="fill:rgb(0,220,151);"/>
        <path d="M228.51,182.02C230.103,187.28 233.223,191.123 237.87,193.55C240.77,195.07 244.27,195.65 247.44,196.53C249.207,197.023 251.057,197.713 252.99,198.6C255.89,199.93 258.75,199.68 261.9,199.81C269.547,200.13 277.123,200.133 284.63,199.82" style="fill:none;fill-rule:nonzero;stroke:rgb(123,230,76);stroke-width:2px;"/>
        <path d="M300.39,196.53C297.063,198.723 294.683,199.83 293.25,199.85C290.45,199.89 287.577,199.88 284.63,199.82" style="fill:none;fill-rule:nonzero;stroke:rgb(92,203,81);stroke-width:2px;"/>
        <path d="M296.16,279.48C298.05,277.34 300.65,276.45 299.35,272.84C297.79,268.46 292.01,264.26 287.57,267.72C285.797,269.1 283.867,270.267 281.78,271.22C274.93,274.36 272.27,281.98 269.74,288.46C267.16,295.04 267.01,302.95 267.36,309.43C267.673,315.237 270.837,317.153 276.85,315.18C281.23,313.74 285.77,312.557 290.47,311.63C293.48,311.04 295.83,304.8 297.26,302.19C300.64,296.01 300.44,289.41 297.69,283.22C297.25,282.23 296.48,281.45 296.02,280.47C295.853,280.103 295.9,279.773 296.16,279.48" style="fill:none;fill-rule:nonzero;stroke:rgb(0,110,76);stroke-width:2px;"/>
        <path d="M221.97,278.17C221.266,278.037 220.652,277.599 220.29,276.97C218.943,274.603 217.023,273.747 214.53,274.4C211.957,275.08 208.95,276.4 205.51,278.36C199.64,281.7 192.77,291.59 195.42,298.6C196.12,300.453 197.15,302.24 198.51,303.96C201.73,308.013 204.61,312.07 207.15,316.13C207.823,317.21 208.813,317.77 210.12,317.81C216.453,318.023 221.147,315.193 224.2,309.32C226.71,304.48 228.15,300.57 228.1,295.01C228.073,291.317 228.3,287.75 228.78,284.31C229.02,282.59 228.663,281.057 227.71,279.71C227.47,279.37 227.147,279.16 226.74,279.08L221.97,278.17" style="fill:none;fill-rule:nonzero;stroke:rgb(0,110,76);stroke-width:2px;"/>
        <path d="M240.58,351.62C242.16,346.13 247.18,343.03 252.13,340.73C253.99,339.87 254.64,337.65 253.39,336.01C250.88,332.72 245.25,326.41 240.85,326.38C237.57,326.36 234.277,326.363 230.97,326.39C226.52,326.44 222.19,328.7 218.4,330.64C216.32,331.72 217.31,333.43 217.6,335.07C218.16,338.323 219.423,341.183 221.39,343.65C222.75,345.35 223.62,347.08 224.19,349.16C224.81,351.46 224.123,351.96 222.13,350.66C217.53,347.66 214.14,344.64 208.75,348.85C205.26,351.59 207.93,357.06 210.3,359.48C216.147,365.453 223.183,368.67 231.41,369.13C235.46,369.35 239.94,368.55 244.06,368.06C245.547,367.88 247.067,367.21 248.62,366.05C253.55,362.37 263.19,354.32 254.42,348.59C252.49,347.33 250.08,347.69 248.34,349.06C246.387,350.593 244.367,351.91 242.28,353.01C240.633,353.877 240.067,353.413 240.58,351.62" style="fill:none;fill-rule:nonzero;stroke:rgb(0,110,76);stroke-width:2px;"/>
    </g>
    <g>
        <g>
            <path d="M287.66,39.83C287.569,40.009 287.384,40.124 287.18,40.13L280.89,40.22C280.503,40.227 280.167,40.1 279.88,39.84C278.75,38.83 278.34,37.38 277.25,36.35C273.22,32.54 266.94,25.07 270.83,19.37C273.64,15.24 278.74,8.79 284.19,8.28C291.77,7.59 299.8,10.51 304.17,16.77C309.64,24.59 295.85,34.35 289.79,37.68C288.87,38.187 288.16,38.903 287.66,39.83Z" style="fill:rgb(255,1,0);fill-rule:nonzero;"/>
            <path d="M299.34,97.15C298.593,97.11 297.793,96.89 296.94,96.49C295.533,95.837 294.79,95.493 294.71,95.46C289.117,93.247 283.72,90.633 278.52,87.62C276.62,86.527 274.307,84.867 271.58,82.64C269.36,80.827 267.08,79.113 264.74,77.5L279.69,41.76C279.941,41.165 280.58,40.822 281.22,40.94C283.053,41.273 284.97,41.307 286.97,41.04C287.683,40.94 288.1,41.247 288.22,41.96C289.593,49.933 291.37,57.98 293.55,66.1C296.25,76.1 297.48,86.71 299.34,97.15Z" style="fill:rgb(246,239,0);fill-rule:nonzero;"/>
            <path d="M300.47,104.48L307.89,139.86C302.817,137.867 297.893,135.853 293.12,133.82C289.87,132.43 287.11,130.53 283.95,129.08C281.69,128.04 279.503,126.75 277.39,125.21C271.15,120.65 265.33,115.927 259.93,111.04C258.797,110.02 257.72,108.92 256.7,107.74C255.733,106.627 254.787,105.53 253.86,104.45L261.6,85.41C263.613,86.343 265.56,87.54 267.44,89C269.993,90.987 271.837,92.31 272.97,92.97C278.71,96.31 284.37,99.233 289.95,101.74C290.67,102.06 291.707,102.447 293.06,102.9C294.087,103.24 295.097,103.643 296.09,104.11C297.483,104.77 298.943,104.893 300.47,104.48Z" style="fill:rgb(246,239,0);fill-rule:nonzero;"/>
            <path d="M250.96,112.55C251.84,113.483 252.68,114.42 253.48,115.36C254.427,116.473 255.29,117.393 256.07,118.12C261.057,122.767 265.82,126.517 270.36,129.37C272.727,130.863 275.14,132.383 277.6,133.93C283.88,137.87 290.75,141.11 297.21,144.51C301.17,146.59 305.2,147.463 309.3,147.13C310.567,154.203 312.407,161.593 314.82,169.3C313.893,168.853 312.993,168.443 312.12,168.07C311.187,167.67 310.203,167.36 309.17,167.14C298.703,164.9 288.04,161.483 277.18,156.89C273.54,155.35 270.427,153.683 267.84,151.89C260.64,146.897 252.353,140.683 242.98,133.25L250.96,112.55Z" style="fill:rgb(246,239,0);fill-rule:nonzero;"/>
            <path d="M316.78,173.96C317.46,174.527 318.533,175.057 320,175.55C319.78,177.337 319.68,179.333 319.7,181.54C319.72,183.15 318.99,184.71 317.82,185.59C313.04,189.163 307.23,192.81 300.39,196.53C298.37,196.75 296.597,196.48 295.07,195.72C292.757,194.567 291.57,193.98 291.51,193.96C287.96,192.72 284.65,191.34 280.94,190.46C274.607,188.96 268.697,186.72 263.21,183.74C258.757,181.313 254.443,178.897 250.27,176.49C246.203,174.143 242.303,171.317 238.57,168.01C238.343,167.817 238.167,167.59 238.04,167.33C237.887,167.023 237.637,166.873 237.29,166.88C235.31,166.947 234.237,166.34 234.07,165.06C234.37,164.013 234.627,162.973 234.84,161.94C236.42,154.267 238.51,146.55 241.11,138.79L241.99,141.88C242.077,142.167 242.22,142.423 242.42,142.65C243.667,143.997 245.04,145.153 246.54,146.12C252.37,149.87 257.14,154.54 263.23,157.88C269.18,161.14 274.42,164.52 281.02,166.75C287.087,168.803 292.277,170.487 296.59,171.8C303.423,173.873 308.927,175.103 313.1,175.49C314.107,175.583 315.333,175.073 316.78,173.96Z" style="fill:rgb(246,239,0);fill-rule:nonzero;"/>
            <path d="M284.63,199.82C277.123,200.133 269.547,200.13 261.9,199.81C258.75,199.68 255.89,199.93 252.99,198.6C251.057,197.713 249.207,197.023 247.44,196.53C244.27,195.65 240.77,195.07 237.87,193.55C233.223,191.123 230.103,187.28 228.51,182.02L232.18,171.8C235.413,174.647 238.757,177.35 242.21,179.91C244.15,181.343 246.39,182.743 248.93,184.11C251.29,185.377 253.633,186.687 255.96,188.04C257.853,189.133 259.977,190.24 262.33,191.36C264.137,192.213 265.94,192.793 267.74,193.1C270.36,193.54 272.55,195 275.17,195.63C278.177,196.35 281.287,197.117 284.5,197.93C284.787,198.003 284.943,198.187 284.97,198.48C285.01,198.827 284.897,199.273 284.63,199.82Z" style="fill:rgb(246,239,0);fill-rule:nonzero;"/>
        </g>
        <path d="M264.74,77.5C267.08,79.113 269.36,80.827 271.58,82.64C274.307,84.867 276.62,86.527 278.52,87.62C283.72,90.633 289.117,93.247 294.71,95.46C294.79,95.493 295.533,95.837 296.94,96.49C297.793,96.89 298.593,97.11 299.34,97.15L300.47,104.48C298.943,104.893 297.483,104.77 296.09,104.11C295.097,103.643 294.087,103.24 293.06,102.9C291.707,102.447 290.67,102.06 289.95,101.74C284.37,99.233 278.71,96.31 272.97,92.97C271.837,92.31 269.993,90.987 267.44,89C265.56,87.54 263.613,86.343 261.6,85.41L264.74,77.5Z" style="fill:rgb(183,186,10);fill-rule:nonzero;"/>
        <path d="M307.89,139.86L309.3,147.13C305.2,147.463 301.17,146.59 297.21,144.51C290.75,141.11 283.88,137.87 277.6,133.93C275.14,132.383 272.727,130.863 270.36,129.37C265.82,126.517 261.057,122.767 256.07,118.12C255.29,117.393 254.427,116.473 253.48,115.36C252.68,114.42 251.84,113.483 250.96,112.55L253.86,104.45C254.787,105.53 255.733,106.627 256.7,107.74C257.72,108.92 258.797,110.02 259.93,111.04C265.33,115.927 271.15,120.65 277.39,125.21C279.503,126.75 281.69,128.04 283.95,129.08C287.11,130.53 289.87,132.43 293.12,133.82C297.893,135.853 302.817,137.867 307.89,139.86Z" style="fill:rgb(183,186,10);fill-rule:nonzero;"/>
        <path d="M314.82,169.3L316.78,173.96C315.333,175.073 314.107,175.583 313.1,175.49C308.927,175.103 303.423,173.873 296.59,171.8C292.277,170.487 287.087,168.803 281.02,166.75C274.42,164.52 269.18,161.14 263.23,157.88C257.14,154.54 252.37,149.87 246.54,146.12C245.04,145.153 243.667,143.997 242.42,142.65C242.22,142.423 242.077,142.167 241.99,141.88L241.11,138.79L242.98,133.25C252.353,140.683 260.64,146.897 267.84,151.89C270.427,153.683 273.54,155.35 277.18,156.89C288.04,161.483 298.703,164.9 309.17,167.14C310.203,167.36 311.187,167.67 312.12,168.07C312.993,168.443 313.893,168.853 314.82,169.3Z" style="fill:rgb(183,186,10);fill-rule:nonzero;"/>
        <path d="M300.39,196.53C297.063,198.723 294.683,199.83 293.25,199.85C290.45,199.89 287.577,199.88 284.63,199.82C284.897,199.273 285.01,198.827 284.97,198.48C284.943,198.187 284.787,198.003 284.5,197.93C281.287,197.117 278.177,196.35 275.17,195.63C272.55,195 270.36,193.54 267.74,193.1C265.94,192.793 264.137,192.213 262.33,191.36C259.977,190.24 257.853,189.133 255.96,188.04C253.633,186.687 251.29,185.377 248.93,184.11C246.39,182.743 244.15,181.343 242.21,179.91C238.757,177.35 235.413,174.647 232.18,171.8L234.07,165.06C234.237,166.34 235.31,166.947 237.29,166.88C237.637,166.873 237.887,167.023 238.04,167.33C238.167,167.59 238.343,167.817 238.57,168.01C242.303,171.317 246.203,174.143 250.27,176.49C254.443,178.897 258.757,181.313 263.21,183.74C268.697,186.72 274.607,188.96 280.94,190.46C284.65,191.34 287.96,192.72 291.51,193.96C291.57,193.98 292.757,194.567 295.07,195.72C296.597,196.48 298.37,196.75 300.39,196.53Z" style="fill:rgb(183,186,10);fill-rule:nonzero;"/>
    </g>
    <path d="M436.83,392.16C439.643,395.387 442.473,398.47 445.32,401.41C448.227,404.41 451.773,405.543 455.96,404.81C457.9,404.47 459.337,404.29 460.27,404.27C459.503,410.403 457.807,415.13 455.18,418.45C450.2,424.74 442.32,429.25 434.04,432.75C430.173,434.39 426.287,435.837 422.38,437.09C412.31,440.32 401.95,444.13 391.55,447.1C384.72,449.04 378.13,451.91 371.22,453.75C368.253,454.543 365.437,455.593 362.77,456.9C361.3,457.62 360.44,458.73 360.44,460.43C360.45,470.86 355.27,482.26 350.7,491.77C350.04,493.13 348.847,494.047 347.12,494.52C336.527,497.447 327.027,499.67 318.62,501.19C311.72,502.44 303.87,502.21 296.5,501.97C282.3,501.51 268.137,501.717 254.01,502.59C247.403,502.997 241.507,503.237 236.32,503.31C228.4,503.43 219.62,503.96 212.57,503.32C200.503,502.233 188.917,498.763 177.81,492.91C177.027,492.494 176.548,491.669 176.58,490.79C176.633,489.29 176.9,487.83 177.38,486.41C179.113,481.23 181.047,476.653 183.18,472.68C184.98,469.3 184.47,464.84 180.02,464.08C170.653,462.46 160.763,460.333 150.35,457.7C142.12,455.61 134.1,452.11 125.8,449.07C124.553,448.61 122.503,447.673 119.65,446.26C117.617,445.253 115.497,444.44 113.29,443.82C110.503,442.193 108.017,439.553 105.83,435.9C104.95,434.45 104.42,432.74 103.5,431.25C102.9,430.27 102.463,429.09 102.19,427.71C101.55,424.49 101.103,421.533 100.85,418.84C100.75,417.74 101.42,416.93 101.51,415.91C101.57,415.29 101.77,414.73 102.11,414.23C103.09,412.803 104.09,411.46 105.11,410.2C105.79,409.347 106.843,408.603 108.27,407.97C109.47,407.437 110.627,406.87 111.74,406.27L121.82,403.8C122.38,404.467 123.113,404.927 124.02,405.18C128.68,406.507 133.517,407.847 138.53,409.2C146.497,411.34 154.553,412.97 162.7,414.09C166.727,414.643 170.577,414.957 174.25,415.03C183.25,415.22 192.48,415.77 201.22,414.69C203.3,414.43 208.98,413 207.51,409.68C206.723,407.88 205.61,406.337 204.17,405.05C199.757,401.117 196.007,397.33 192.92,393.69C183.32,382.4 179.42,364.05 177.36,349.35C175.34,334.95 173.3,322.04 171.24,310.62C170.073,304.173 169.153,298.553 168.48,293.76C168.053,290.707 168.153,287.313 168.78,283.58C169.96,276.62 171.47,270 174.45,263.42C177.537,256.6 180.693,250.043 183.92,243.75C185.5,240.68 182.93,237.74 180.89,235.42C179.07,233.36 176.11,233.69 173.88,234.68C166.05,238.13 159.15,243.28 152,247.98C147.16,251.16 143.27,255.59 138.59,259.02C135.223,261.487 131.927,263.553 128.7,265.22C122.39,268.49 110.04,271.58 107.23,262.31C106.32,259.31 104.64,254.95 106.01,251.88C108.83,245.567 112.413,240.27 116.76,235.99C126,226.89 137.81,219.83 148.75,211.84C153.96,208.04 159.13,204.12 164.67,200.7C175.84,193.82 187.38,187.2 199.43,183.09C203.637,181.657 207.973,180.78 212.44,180.46C214.187,180.333 216.473,180.57 219.3,181.17C222.553,181.863 225.623,182.147 228.51,182.02C230.103,187.28 233.223,191.123 237.87,193.55C240.77,195.07 244.27,195.65 247.44,196.53C249.207,197.023 251.057,197.713 252.99,198.6C255.89,199.93 258.75,199.68 261.9,199.81C269.547,200.13 277.123,200.133 284.63,199.82C287.577,199.88 290.45,199.89 293.25,199.85C294.683,199.83 297.063,198.723 300.39,196.53C307.23,192.81 313.04,189.163 317.82,185.59C318.99,184.71 319.72,183.15 319.7,181.54C319.68,179.333 319.78,177.337 320,175.55C325.02,170.87 330.69,168.447 337.01,168.28C344.53,168.08 353.33,168.78 360.79,170.88C368.297,172.993 375.443,175.907 382.23,179.62C393.263,185.66 404.39,191.697 415.61,197.73C416.503,198.213 417.234,198.951 417.71,199.85C421.32,206.68 424.97,213.02 428.28,220.09C432.46,229.02 436.09,236.47 434.75,246.78C433.82,253.87 426.67,256.9 420.19,256.76C412.45,256.59 404.73,250.56 399.92,244.76C395.36,239.26 391.4,234.233 388.04,229.68C380.98,220.1 368.73,212.52 356.49,213.94C351.62,214.51 348.68,222.16 349.74,226.33C351.02,231.36 351.31,236.67 352.71,241.82C356.13,254.37 361.23,266.01 363.59,279.18C365.53,290.007 366.713,300.717 367.14,311.31C367.66,324.18 365.9,336.57 361.59,348.15C357.5,359.13 353.27,369.78 350.59,381.16C349.55,385.6 349.98,389.223 351.88,392.03C355.2,396.923 359.297,400.143 364.17,401.69C369.49,403.37 374.82,404.61 380.49,404.86C386.63,405.133 392.613,404.893 398.44,404.14C404.19,403.39 409.62,401.28 415.11,399.76C420.36,398.3 425.49,395.83 430.65,393.61C431.55,393.223 433.61,392.74 436.83,392.16ZM296.16,279.48C298.05,277.34 300.65,276.45 299.35,272.84C297.79,268.46 292.01,264.26 287.57,267.72C285.797,269.1 283.867,270.267 281.78,271.22C274.93,274.36 272.27,281.98 269.74,288.46C267.16,295.04 267.01,302.95 267.36,309.43C267.673,315.237 270.837,317.153 276.85,315.18C281.23,313.74 285.77,312.557 290.47,311.63C293.48,311.04 295.83,304.8 297.26,302.19C300.64,296.01 300.44,289.41 297.69,283.22C297.25,282.23 296.48,281.45 296.02,280.47C295.853,280.103 295.9,279.773 296.16,279.48ZM221.97,278.17C221.266,278.037 220.652,277.599 220.29,276.97C218.943,274.603 217.023,273.747 214.53,274.4C211.957,275.08 208.95,276.4 205.51,278.36C199.64,281.7 192.77,291.59 195.42,298.6C196.12,300.453 197.15,302.24 198.51,303.96C201.73,308.013 204.61,312.07 207.15,316.13C207.823,317.21 208.813,317.77 210.12,317.81C216.453,318.023 221.147,315.193 224.2,309.32C226.71,304.48 228.15,300.57 228.1,295.01C228.073,291.317 228.3,287.75 228.78,284.31C229.02,282.59 228.663,281.057 227.71,279.71C227.47,279.37 227.147,279.16 226.74,279.08L221.97,278.17ZM240.58,351.62C242.16,346.13 247.18,343.03 252.13,340.73C253.99,339.87 254.64,337.65 253.39,336.01C250.88,332.72 245.25,326.41 240.85,326.38C237.57,326.36 234.277,326.363 230.97,326.39C226.52,326.44 222.19,328.7 218.4,330.64C216.32,331.72 217.31,333.43 217.6,335.07C218.16,338.323 219.423,341.183 221.39,343.65C222.75,345.35 223.62,347.08 224.19,349.16C224.81,351.46 224.123,351.96 222.13,350.66C217.53,347.66 214.14,344.64 208.75,348.85C205.26,351.59 207.93,357.06 210.3,359.48C216.147,365.453 223.183,368.67 231.41,369.13C235.46,369.35 239.94,368.55 244.06,368.06C245.547,367.88 247.067,367.21 248.62,366.05C253.55,362.37 263.19,354.32 254.42,348.59C252.49,347.33 250.08,347.69 248.34,349.06C246.387,350.593 244.367,351.91 242.28,353.01C240.633,353.877 240.067,353.413 240.58,351.62Z" style="fill:rgb(0,220,151);fill-rule:nonzero;"/>
    <path d="M296.02,280.47C296.48,281.45 297.25,282.23 297.69,283.22C300.44,289.41 300.64,296.01 297.26,302.19C295.83,304.8 293.48,311.04 290.47,311.63C285.77,312.557 281.23,313.74 276.85,315.18C270.837,317.153 267.673,315.237 267.36,309.43C267.01,302.95 267.16,295.04 269.74,288.46C272.27,281.98 274.93,274.36 281.78,271.22C283.867,270.267 285.797,269.1 287.57,267.72C292.01,264.26 297.79,268.46 299.35,272.84C300.65,276.45 298.05,277.34 296.16,279.48C295.9,279.773 295.853,280.103 296.02,280.47Z" style="fill-rule:nonzero;"/>
    <path d="M221.97,278.17L226.74,279.08C227.147,279.16 227.47,279.37 227.71,279.71C228.663,281.057 229.02,282.59 228.78,284.31C228.3,287.75 228.073,291.317 228.1,295.01C228.15,300.57 226.71,304.48 224.2,309.32C221.147,315.193 216.453,318.023 210.12,317.81C208.813,317.77 207.823,317.21 207.15,316.13C204.61,312.07 201.73,308.013 198.51,303.96C197.15,302.24 196.12,300.453 195.42,298.6C192.77,291.59 199.64,281.7 205.51,278.36C208.95,276.4 211.957,275.08 214.53,274.4C217.023,273.747 218.943,274.603 220.29,276.97C220.652,277.599 221.266,278.037 221.97,278.17Z" style="fill-rule:nonzero;"/>
    <path d="M240.58,351.62C240.067,353.413 240.633,353.877 242.28,353.01C244.367,351.91 246.387,350.593 248.34,349.06C250.08,347.69 252.49,347.33 254.42,348.59C263.19,354.32 253.55,362.37 248.62,366.05C247.067,367.21 245.547,367.88 244.06,368.06C239.94,368.55 235.46,369.35 231.41,369.13C223.183,368.67 216.147,365.453 210.3,359.48C207.93,357.06 205.26,351.59 208.75,348.85C214.14,344.64 217.53,347.66 222.13,350.66C224.123,351.96 224.81,351.46 224.19,349.16C223.62,347.08 222.75,345.35 221.39,343.65C219.423,341.183 218.16,338.323 217.6,335.07C217.31,333.43 216.32,331.72 218.4,330.64C222.19,328.7 226.52,326.44 230.97,326.39C234.277,326.363 237.57,326.36 240.85,326.38C245.25,326.41 250.88,332.72 253.39,336.01C254.64,337.65 253.99,339.87 252.13,340.73C247.18,343.03 242.16,346.13 240.58,351.62Z" style="fill-rule:nonzero;"/>
    <g id="Layer2">
    </g>
</svg>
