<?xml version="1.0" encoding="UTF-8" standalone="no"?>
<!DOCTYPE svg PUBLIC "-//W3C//DTD SVG 1.1//EN" "http://www.w3.org/Graphics/SVG/1.1/DTD/svg11.dtd">
<svg width="100%" height="100%" viewBox="0 0 238 238" version="1.1" xmlns="http://www.w3.org/2000/svg" xmlns:xlink="http://www.w3.org/1999/xlink" xml:space="preserve" xmlns:serif="http://www.serif.com/" style="fill-rule:evenodd;clip-rule:evenodd;stroke-linejoin:round;stroke-miterlimit:2;">
    <g transform="matrix(1,0,0,1,-9,-9)">
        <g transform="matrix(4.02362,0,0,4.02362,-317.113,-339.31)">
            <path d="M128.48,96.54C131.34,100.83 129.75,104.79 127.63,108.96C127.49,109.233 127.273,109.41 126.98,109.49L120.38,111.42C120.357,111.427 120.333,111.432 120.309,111.437C119.777,111.546 119.251,111.203 119.143,110.676C119.137,110.651 119.133,110.626 119.13,110.6C118.35,104.56 119.523,98.983 122.65,93.87C122.863,93.517 123.16,93.263 123.54,93.11C124.753,92.603 125.8,91.887 126.68,90.96C127.16,90.46 127.693,90.393 128.28,90.76C129.147,91.307 129.733,92.083 130.04,93.09C130.189,93.589 130.009,94.134 129.59,94.45L128.73,95.09C128.19,95.497 128.107,95.98 128.48,96.54Z" style="fill:rgb(3,10,32);fill-rule:nonzero;"/>
        </g>
        <g transform="matrix(4.02362,0,0,4.02362,-317.113,-339.31)">
            <path d="M100.71,96.26L102.02,96C102.067,95.99 102.116,95.986 102.164,95.986C102.564,95.986 102.894,96.315 102.894,96.716C102.894,96.741 102.893,96.765 102.89,96.79C102.63,99.263 102.457,101.723 102.37,104.17C102.25,107.51 100.57,111.76 96.82,112.38C96.373,112.453 96.037,112.293 95.81,111.9C94.683,109.92 93.453,107.92 92.12,105.9C90.28,103.1 91.36,100.31 93.02,97.79C94.36,95.74 96.34,95.2 98.22,93.89C98.318,93.823 98.433,93.788 98.552,93.788C98.793,93.788 99.011,93.936 99.1,94.16L99.71,95.72C99.866,96.118 100.291,96.348 100.71,96.26Z" style="fill:rgb(3,10,32);fill-rule:nonzero;"/>
        </g>
        <g transform="matrix(4.02362,0,0,4.02362,-317.113,-339.31)">
            <path d="M103.39,136.44C101.677,137.127 100.5,138.17 99.86,139.57C99.68,139.963 99.377,140.207 98.95,140.3C98.123,140.487 97.657,140.177 97.55,139.37C97.37,137.9 97.37,136.46 98.33,135.22C100.93,131.89 104.71,128.86 101.25,124.22C100.28,122.92 99.84,121.43 99.69,119.83C99.657,119.477 99.8,119.22 100.12,119.06C102.107,118.08 104.36,117.587 106.88,117.58C109.62,117.58 111.32,120 112.54,122.04C112.547,122.052 112.553,122.064 112.559,122.077C112.681,122.329 112.577,122.634 112.33,122.753C112.317,122.759 112.304,122.765 112.29,122.77C109.78,123.72 108.38,125.48 106.96,127.73C105.68,129.75 107.87,131.24 109.12,132.49C109.387,132.763 109.51,133.09 109.49,133.47C109.39,135.103 109.703,136.637 110.43,138.07C110.651,138.507 110.735,138.998 110.67,139.48C110.39,141.42 109.47,142.12 107.91,141.58C107.57,141.465 107.329,141.158 107.3,140.8C107.16,139.053 106.06,137.613 104,136.48C103.8,136.367 103.597,136.353 103.39,136.44Z" style="fill:rgb(3,10,32);fill-rule:nonzero;"/>
        </g>
    </g>
</svg>
