<svg width="41" height="44" viewBox="0 0 41 44" fill="none" xmlns="http://www.w3.org/2000/svg"><g filter="url(#filter0_d_12301_435)"><path d="M5 14.5488C5 13.0626 5.82399 11.6989 7.13966 11.0077L18.6181 4.97737C19.7828 4.36546 21.174 4.36546 22.3388 4.97737L33.8172 11.0077C35.1329 11.6989 35.9569 13.0626 35.9569 14.5488V29.4849C35.9569 31.0624 35.0298 32.4925 33.5898 33.1364L22.1114 38.2697C21.0723 38.7344 19.8845 38.7344 18.8454 38.2697L7.36702 33.1364C5.92704 32.4925 5 31.0624 5 29.4849L5 14.5488Z" fill="url(#paint0_linear_12301_435)" shape-rendering="crispEdges"></path><path d="M5 14.5488C5 13.0626 5.82399 11.6989 7.13966 11.0077L18.6181 4.97737C19.7828 4.36546 21.174 4.36546 22.3388 4.97737L33.8172 11.0077C35.1329 11.6989 35.9569 13.0626 35.9569 14.5488V29.4849C35.9569 31.0624 35.0298 32.4925 33.5898 33.1364L22.1114 38.2697C21.0723 38.7344 19.8845 38.7344 18.8454 38.2697L7.36702 33.1364C5.92704 32.4925 5 31.0624 5 29.4849L5 14.5488Z" stroke="#00C6A2" shape-rendering="crispEdges"></path></g><path d="M11.945 15.3389L20.4785 11.625L20.4628 21.3271L15.8058 17.3211L11.1331 21.5546V16.5315C11.134 16.0193 11.45 15.5543 11.945 15.3389Z" fill="#00C6A2" fill-opacity="0.35"></path><path d="M12.1823 28.4959L20.4785 30.8995L20.4628 23.7039L15.8053 19.8018L11.1331 23.9255V27.1837C11.1331 27.7844 11.5573 28.3149 12.1823 28.4959Z" fill="#00C6A2" fill-opacity="0.35"></path><path d="M29.5094 28.4954L20.4944 30.9001L20.4783 23.658L29.261 16.5898C29.261 16.5898 30.7696 17.7247 30.3263 19.7305C29.5448 23.2682 24.5445 24.5208 24.5445 24.5208L29.6649 27.5528C30.0789 27.8002 29.985 28.3685 29.5094 28.4954Z" fill="#45FFDE"></path><path d="M26.545 14.5455L20.4939 11.625L20.4783 21.2625L27.7794 15.35C27.7794 15.35 27.6223 15.1791 27.19 14.8981C27.0368 14.7989 26.545 14.5455 26.545 14.5455Z" fill="#45FFDE"></path><path d="M27.6952 12.804L31.2784 14.1357C31.4586 14.2024 31.5762 14.3616 31.5762 14.5372V16.9746C31.5762 17.1612 31.3169 17.2453 31.1868 17.0999L27.5217 13.0144C27.4244 12.9055 27.5516 12.7501 27.6952 12.804Z" fill="#45FFDE"></path><defs><filter id="filter0_d_12301_435" x="0.5" y="0.0185547" width="39.9568" height="43.0996" filterUnits="userSpaceOnUse" color-interpolation-filters="sRGB"><feFlood flood-opacity="0" result="BackgroundImageFix"></feFlood><feColorMatrix in="SourceAlpha" type="matrix" values="0 0 0 0 0 0 0 0 0 0 0 0 0 0 0 0 0 0 127 0" result="hardAlpha"></feColorMatrix><feOffset></feOffset><feGaussianBlur stdDeviation="2"></feGaussianBlur><feComposite in2="hardAlpha" operator="out"></feComposite><feColorMatrix type="matrix" values="0 0 0 0 0 0 0 0 0 0.775 0 0 0 0 0.6355 0 0 0 0.5 0"></feColorMatrix><feBlend mode="normal" in2="BackgroundImageFix" result="effect1_dropShadow_12301_435"></feBlend><feBlend mode="normal" in="SourceGraphic" in2="effect1_dropShadow_12301_435" result="shape"></feBlend></filter><linearGradient id="paint0_linear_12301_435" x1="20.4784" y1="4" x2="20.4784" y2="39" gradientUnits="userSpaceOnUse"><stop stop-color="#011320"></stop><stop offset="1" stop-color="#011320" stop-opacity="0"></stop></linearGradient></defs></svg>