<?xml version="1.0" encoding="UTF-8" standalone="no"?>
<!DOCTYPE svg PUBLIC "-//W3C//DTD SVG 1.1//EN" "http://www.w3.org/Graphics/SVG/1.1/DTD/svg11.dtd">
<svg width="100%" height="100%" viewBox="0 0 512 512" version="1.1" xmlns="http://www.w3.org/2000/svg" xmlns:xlink="http://www.w3.org/1999/xlink" xml:space="preserve" xmlns:serif="http://www.serif.com/" style="fill-rule:evenodd;clip-rule:evenodd;">
    <g>
        <path d="M151.68,219.95L118.41,217.1C117.167,216.994 116.037,217.865 115.83,219.09C114.84,224.92 116.11,230.58 116.22,236.06C116.36,243.4 116.88,250.36 116.92,257.51C116.933,261.03 117.093,264.89 117.4,269.09C117.9,275.857 118.033,284.017 117.8,293.57C117.52,305.21 118.58,315.91 119.57,327.52C120.55,339.027 121.307,352.523 121.84,368.01C122.41,384.75 123.95,401.92 125.25,417.65C125.53,421.02 129.29,423.67 131.67,425.57C143.34,434.88 155.44,444.61 168.03,452.39C180.577,460.13 192.847,467.013 204.84,473.04C210.167,475.713 215.313,478.357 220.28,480.97C228.57,485.33 248.1,494.47 256.87,489.62C258.543,488.693 260.227,487.957 261.92,487.41C266.587,485.91 271.453,484.407 276.52,482.9C291.08,478.57 308.82,470.71 324.52,463.89C340.21,457.08 356.62,447.72 370.78,437.09C375.88,433.26 380.63,428.8 385.59,424.64C389.683,421.213 393.553,415.783 397.2,408.35C397.633,407.47 397.853,406.467 397.86,405.34C397.91,401.16 398.17,397.19 398,392.9C397.633,383.587 397.227,374.37 396.78,365.25C396.33,355.85 396.5,346.58 396.15,337.28C395.93,331.467 395.933,324.82 396.16,317.34C397.133,285.667 398.183,258.333 399.31,235.34C399.74,226.62 401.27,218.4 398.99,209.03C397.68,203.65 393.22,204.56 389.32,205.92C379.607,209.3 368.983,212.453 357.45,215.38C351.3,216.95 344.85,217.95 338.5,219.28" style="fill:none;fill-rule:nonzero;stroke:rgb(128,128,128);stroke-width:2px;"/>
        <path d="M338.5,219.28C337.767,219.54 337.543,219.247 337.83,218.4C337.856,218.321 337.901,218.249 337.96,218.19C340.56,215.703 342.843,212.52 344.81,208.64C348.023,202.307 350.34,195.85 351.76,189.27C353.467,181.337 355.113,174.087 356.7,167.52C358.54,159.893 360.42,150.893 362.34,140.52C364.96,126.34 360.92,111.92 354.39,99.37C351.17,93.183 347.9,87.62 344.58,82.68C344.451,82.486 344.383,82.259 344.383,82.027C344.383,81.379 344.915,80.847 345.563,80.847C345.622,80.847 345.681,80.851 345.74,80.86C348.987,81.36 351.97,82.363 354.69,83.87C360.217,86.93 365.613,90.09 370.88,93.35C377.78,97.617 386.593,102.373 397.32,107.62C403.44,110.61 407.8,109.1 413.67,107.72C414.743,107.467 415.993,106.637 417.42,105.23C421.04,101.68 425.81,94.87 422.12,90.56C417.45,85.1 413.28,79.26 408.21,74.03C404.137,69.83 400.033,65.86 395.9,62.12C388.7,55.61 378.71,50.92 370.31,45.3C364.657,41.507 357.687,37.533 349.4,33.38C341.75,29.53 334.06,27.04 325.52,26.7C322.16,26.567 318.907,26.43 315.76,26.29C307.37,25.93 299.63,28.86 291.71,30.89C291.403,30.963 291.113,30.923 290.84,30.77C288.33,29.33 285.96,27.46 283.23,26.57C279.523,25.363 275.74,24.203 271.88,23.09C260.11,19.71 249.34,19.64 238.32,23.26C232.2,25.27 223.45,28.78 217.21,25.17C210.53,21.3 201.33,15.83 194.27,15.33C187.443,14.843 180.167,15.737 172.44,18.01C165.62,20.01 158.88,21.24 152.48,23.63C144.733,26.517 136.72,29.66 128.44,33.06C123.99,34.89 119.71,37.3 115.38,39.4C111.147,41.453 108.263,44.733 106.73,49.24C105.52,52.78 105.04,56.45 103.13,59.74C101.223,63.053 99.227,66.41 97.14,69.81C94.51,74.1 91.61,80.78 92.71,85.97C93.617,90.263 95.667,93.423 98.86,95.45C104.25,98.86 113.37,98.2 119.09,96.1C122.783,94.74 126.31,93.34 129.67,91.9C134.61,89.79 140.53,84.14 143.7,79.76C148.89,72.6 156.2,66.41 163.88,63C168.093,61.127 172.337,61.897 176.61,65.31C177.48,66.01 177.81,67.27 177.37,68.31C171.69,81.783 167.09,95.493 163.57,109.44C159.84,124.23 159.03,140.54 161.24,155.18C163.453,169.78 167.397,183.377 173.07,195.97C173.79,197.577 173.613,198.907 172.54,199.96C170.073,202.367 167.16,204.7 163.8,206.96C161.02,208.833 158.757,210.717 157.01,212.61C154.943,214.85 153.167,217.297 151.68,219.95" style="fill:none;fill-rule:nonzero;stroke:rgb(155,237,205);stroke-width:2px;"/>
        <path d="M338.5,219.28C337.48,219.86 336.407,220.207 335.28,220.32C320.57,221.8 306.08,223.99 290.13,225.15C283.937,225.603 277.493,225.877 270.8,225.97C255.57,226.17 240.81,226.5 225.67,225.79C208.15,224.96 192.09,224.54 174.26,222.47C172.973,222.323 169.203,222.03 162.95,221.59C159.01,221.31 155.253,220.763 151.68,219.95" style="fill:none;fill-rule:nonzero;stroke:rgb(27,109,77);stroke-width:2px;"/>
        <path d="M232.28,117.55C231.893,118.763 231.443,119.967 230.93,121.16C227.79,128.47 230.75,136.04 235.17,141.82C239.77,147.83 248.73,148.68 255.84,148.02C261.02,147.53 261.45,143.09 261.68,138.73C261.953,133.77 261.247,129.207 259.56,125.04C258.393,122.153 257.203,119.253 255.99,116.34C254.67,113.17 252.71,110.75 249.46,109.55C246.48,108.45 243.747,106.983 241.26,105.15C239.29,103.71 237.21,103.67 234.96,104.66C231.967,105.967 230.247,108.333 229.8,111.76C229.716,112.396 229.877,113.04 230.25,113.56L232.06,116.14C232.36,116.573 232.433,117.043 232.28,117.55" style="fill:none;fill-rule:nonzero;stroke:rgb(27,109,77);stroke-width:2px;"/>
        <path d="M300.38,116.12C296.1,118.73 298,131.32 298.67,135.44C299.463,140.36 302.04,144.163 306.4,146.85C313.48,151.22 320.45,153.34 324.96,143.99C326.44,140.9 328.5,138.32 330.55,135.6C333.18,132.12 332.48,127.11 330.42,123.55C327.587,118.637 323.397,115.047 317.85,112.78C313.9,111.17 311.21,110.14 307.46,113.14C305.3,114.87 302.64,114.74 300.38,116.12" style="fill:none;fill-rule:nonzero;stroke:rgb(27,109,77);stroke-width:2px;"/>
        <path d="M288.01,182.69C288.037,184.377 287.303,184.837 285.81,184.07C283.93,183.103 282.263,181.787 280.81,180.12C275.09,173.54 267.91,182.46 273.68,188.03C276.647,190.89 279.943,192.767 283.57,193.66C287.32,194.58 291.3,193.2 295.19,193.7C297.68,194.02 300.22,194.58 302.71,194.18C307.48,193.41 312.76,191.26 315.65,186.99C317.097,184.85 317.33,182.627 316.35,180.32C315.04,177.25 310.91,177.87 309.13,180.05C307.75,181.75 306.113,183.047 304.22,183.94C304.133,183.98 304.038,184 303.943,184C303.658,184 303.403,183.819 303.31,183.55C302.263,180.323 302.95,177.633 305.37,175.48C308.52,172.67 312.49,168.56 311.32,163.99C310.19,159.56 305.18,157.06 300.96,157.07C297.153,157.083 293.317,157.027 289.45,156.9C284.61,156.74 280.54,159.14 276.72,162.11C273.66,164.48 273.06,168.19 276.07,170.88C278.98,173.48 282.34,175.52 285.67,177.46C287.072,178.278 287.949,179.77 287.98,181.39L288.01,182.69" style="fill:none;fill-rule:nonzero;stroke:rgb(27,109,77);stroke-width:2px;"/>
        <path d="M381.41,244.97C380.67,243.203 381.16,241.98 382.88,241.3C386.6,239.82 390.083,239.267 393.33,239.64C393.77,239.693 393.997,239.497 394.01,239.05C394.17,233.917 394.507,228.757 395.02,223.57C395.41,219.59 395.22,215.23 394.3,211.31C394.06,210.297 393.45,209.963 392.47,210.31C383.057,213.63 372.797,216.76 361.69,219.7C349.53,222.91 336.4,224.72 323.58,226.99C318.093,227.957 310.813,228.69 301.74,229.19C295.68,229.53 289.71,230.65 283.71,230.87C276.65,231.137 269.407,231.473 261.98,231.88C256.12,232.2 250.3,232 244.49,231.93C239.83,231.877 235.513,231.707 231.54,231.42C216.39,230.33 200.96,230.33 185.68,228.82C164.35,226.72 143.81,224.09 121.9,222.52C121.44,222.487 121.247,222.697 121.32,223.15C121.993,227.323 122.36,231.423 122.42,235.45C122.49,240.5 123.43,245.65 123.42,250.57C123.41,258.53 122.88,266.45 122.92,274.5C122.967,284.033 123.017,293.803 123.07,303.81C123.09,307.923 123.563,314.987 124.49,325C125.597,336.987 126.487,352.807 127.16,372.46C127.63,386.39 129.05,401.02 130.26,415.32C130.407,417.053 131.2,418.507 132.64,419.68C148.3,432.44 164.26,444.61 182.04,454.71C191.32,459.977 199.613,464.487 206.92,468.24C213.907,471.827 220.93,475.403 227.99,478.97C233.457,481.737 239.187,483.747 245.18,485C248.29,485.66 251.7,485.34 254.5,484.37C265.04,480.74 276.55,477.84 286.18,474.19C297.7,469.81 309.48,464.69 321.06,459.69C328.873,456.317 337.02,452.223 345.5,447.41C359.58,439.42 370.6,430.93 382.23,420.69C389.257,414.497 392.82,406.777 392.92,397.53C392.973,393.083 392.687,385.347 392.06,374.32C390.54,347.68 390.63,320.81 391.72,294.25C392.42,277.357 393.047,261.167 393.6,245.68C393.62,245.093 393.353,244.897 392.8,245.09C389.39,246.25 386.14,246.46 382.3,245.7C381.9,245.624 381.565,245.349 381.41,244.97" style="fill:none;fill-rule:nonzero;stroke:rgb(128,128,128);stroke-width:2px;"/>
        <path d="M373.277,246.749C373.277,246.749 373.277,246.749 373.277,246.749C372.966,244.91 369.452,243.948 365.493,244.618C361.534,245.287 358.531,247.352 358.842,249.191C358.843,249.191 358.843,249.191 358.843,249.191C359.154,251.03 362.668,251.992 366.627,251.322C370.586,250.653 373.589,248.588 373.277,246.749" style="fill:none;fill-rule:nonzero;stroke:rgb(128,128,128);stroke-width:2px;"/>
        <path d="M345.04,253.39L344.58,249.96C344.487,249.274 343.895,248.757 343.203,248.757C343.138,248.757 343.074,248.761 343.01,248.77L335.24,249.82C330.419,250.472 326.601,252.095 326.779,253.416C326.78,253.417 326.78,253.419 326.78,253.42L326.96,254.79C326.96,254.79 326.96,254.791 326.96,254.791C327.139,256.112 331.254,256.663 336.076,256.011C336.077,256.01 336.079,256.01 336.08,256.01L343.85,254.96C344.536,254.867 345.053,254.275 345.053,253.583C345.053,253.518 345.049,253.454 345.04,253.39" style="fill:none;fill-rule:nonzero;stroke:rgb(128,128,128);stroke-width:2px;"/>
        <path d="M132.5,257.94L149.08,257.88C149.815,257.88 150.42,257.275 150.42,256.54L150.41,254.83C150.41,254.829 150.41,254.828 150.41,254.827C150.404,253.198 146.102,251.872 140.88,251.89L140.66,251.89C135.441,251.908 131.15,253.262 131.15,254.89L131.16,256.6C131.16,257.335 131.765,257.94 132.5,257.94" style="fill:none;fill-rule:nonzero;stroke:rgb(128,128,128);stroke-width:2px;"/>
        <path d="M308.737,256.109C308.566,254.152 304.549,252.881 299.838,253.294C299.838,253.294 299.838,253.294 299.838,253.294C295.127,253.706 291.392,255.655 291.563,257.611C291.563,257.611 291.563,257.611 291.563,257.611C291.734,259.568 295.751,260.839 300.462,260.426C300.462,260.426 300.462,260.426 300.462,260.426C305.173,260.014 308.908,258.065 308.737,256.109C308.737,256.109 308.737,256.109 308.737,256.109" style="fill:none;fill-rule:nonzero;stroke:rgb(128,128,128);stroke-width:2px;"/>
        <path d="M175.124,257.893C175.212,256.36 174.023,255.025 172.49,254.937L161.668,254.313C160.134,254.224 158.8,255.414 158.711,256.947L158.696,257.207C158.608,258.74 159.797,260.075 161.33,260.163L172.152,260.787C173.686,260.876 175.02,259.686 175.109,258.153L175.124,257.893" style="fill:none;fill-rule:nonzero;stroke:rgb(128,128,128);stroke-width:2px;"/>
        <path d="M190.61,255.4C190.192,255.399 189.781,255.509 189.42,255.72L185.25,258.16C184.528,258.58 184.083,259.355 184.083,260.19C184.083,261.48 185.144,262.54 186.433,262.54C186.449,262.54 186.464,262.54 186.48,262.54L199.33,262.29C200.603,262.267 201.638,261.214 201.638,259.94C201.638,259.752 201.615,259.563 201.57,259.38L201.04,257.22C200.784,256.177 199.844,255.436 198.77,255.43L190.61,255.4" style="fill:none;fill-rule:nonzero;stroke:rgb(128,128,128);stroke-width:2px;"/>
        <path d="M233.763,257.972C233.662,256.363 232.311,255.094 230.699,255.094C230.635,255.094 230.571,255.096 230.507,255.1L219.189,255.812C217.581,255.914 216.312,257.265 216.312,258.876C216.312,258.941 216.314,259.005 216.318,259.069L216.337,259.368C216.438,260.977 217.789,262.246 219.401,262.246C219.465,262.246 219.529,262.244 219.593,262.24L230.911,261.528C232.519,261.426 233.788,260.075 233.788,258.464C233.788,258.399 233.786,258.335 233.782,258.271L233.763,257.972" style="fill:none;fill-rule:nonzero;stroke:rgb(128,128,128);stroke-width:2px;"/>
        <path d="M270.882,258.168C270.806,256.606 269.5,255.362 267.936,255.362C267.888,255.362 267.84,255.364 267.792,255.366L254.388,256.022C252.771,256.101 251.506,257.496 251.585,259.112L251.598,259.372C251.674,260.934 252.98,262.178 254.544,262.178C254.592,262.178 254.64,262.176 254.689,262.174L268.092,261.519C269.709,261.439 270.974,260.044 270.895,258.428L270.882,258.168" style="fill:none;fill-rule:nonzero;stroke:rgb(128,128,128);stroke-width:2px;"/>
    </g>
    <path d="M338.5,219.28C337.48,219.86 336.407,220.207 335.28,220.32C320.57,221.8 306.08,223.99 290.13,225.15C283.937,225.603 277.493,225.877 270.8,225.97C255.57,226.17 240.81,226.5 225.67,225.79C208.15,224.96 192.09,224.54 174.26,222.47C172.973,222.323 169.203,222.03 162.95,221.59C159.01,221.31 155.253,220.763 151.68,219.95C153.167,217.297 154.943,214.85 157.01,212.61C158.757,210.717 161.02,208.833 163.8,206.96C167.16,204.7 170.073,202.367 172.54,199.96C173.613,198.907 173.79,197.577 173.07,195.97C167.397,183.377 163.453,169.78 161.24,155.18C159.03,140.54 159.84,124.23 163.57,109.44C167.09,95.493 171.69,81.783 177.37,68.31C177.81,67.27 177.48,66.01 176.61,65.31C172.337,61.897 168.093,61.127 163.88,63C156.2,66.41 148.89,72.6 143.7,79.76C140.53,84.14 134.61,89.79 129.67,91.9C126.31,93.34 122.783,94.74 119.09,96.1C113.37,98.2 104.25,98.86 98.86,95.45C95.667,93.423 93.617,90.263 92.71,85.97C91.61,80.78 94.51,74.1 97.14,69.81C99.227,66.41 101.223,63.053 103.13,59.74C105.04,56.45 105.52,52.78 106.73,49.24C108.263,44.733 111.147,41.453 115.38,39.4C119.71,37.3 123.99,34.89 128.44,33.06C136.72,29.66 144.733,26.517 152.48,23.63C158.88,21.24 165.62,20.01 172.44,18.01C180.167,15.737 187.443,14.843 194.27,15.33C201.33,15.83 210.53,21.3 217.21,25.17C223.45,28.78 232.2,25.27 238.32,23.26C249.34,19.64 260.11,19.71 271.88,23.09C275.74,24.203 279.523,25.363 283.23,26.57C285.96,27.46 288.33,29.33 290.84,30.77C291.113,30.923 291.403,30.963 291.71,30.89C299.63,28.86 307.37,25.93 315.76,26.29C318.907,26.43 322.16,26.567 325.52,26.7C334.06,27.04 341.75,29.53 349.4,33.38C357.687,37.533 364.657,41.507 370.31,45.3C378.71,50.92 388.7,55.61 395.9,62.12C400.033,65.86 404.137,69.83 408.21,74.03C413.28,79.26 417.45,85.1 422.12,90.56C425.81,94.87 421.04,101.68 417.42,105.23C415.993,106.637 414.743,107.467 413.67,107.72C407.8,109.1 403.44,110.61 397.32,107.62C386.593,102.373 377.78,97.617 370.88,93.35C365.613,90.09 360.217,86.93 354.69,83.87C351.97,82.363 348.987,81.36 345.74,80.86C345.681,80.851 345.622,80.847 345.563,80.847C344.915,80.847 344.383,81.379 344.383,82.027C344.383,82.259 344.451,82.486 344.58,82.68C347.9,87.62 351.17,93.183 354.39,99.37C360.92,111.92 364.96,126.34 362.34,140.52C360.42,150.893 358.54,159.893 356.7,167.52C355.113,174.087 353.467,181.337 351.76,189.27C350.34,195.85 348.023,202.307 344.81,208.64C342.843,212.52 340.56,215.703 337.96,218.19C337.901,218.249 337.856,218.321 337.83,218.4C337.543,219.247 337.767,219.54 338.5,219.28ZM232.28,117.55C231.893,118.763 231.443,119.967 230.93,121.16C227.79,128.47 230.75,136.04 235.17,141.82C239.77,147.83 248.73,148.68 255.84,148.02C261.02,147.53 261.45,143.09 261.68,138.73C261.953,133.77 261.247,129.207 259.56,125.04C258.393,122.153 257.203,119.253 255.99,116.34C254.67,113.17 252.71,110.75 249.46,109.55C246.48,108.45 243.747,106.983 241.26,105.15C239.29,103.71 237.21,103.67 234.96,104.66C231.967,105.967 230.247,108.333 229.8,111.76C229.716,112.396 229.877,113.04 230.25,113.56L232.06,116.14C232.36,116.573 232.433,117.043 232.28,117.55ZM300.38,116.12C296.1,118.73 298,131.32 298.67,135.44C299.463,140.36 302.04,144.163 306.4,146.85C313.48,151.22 320.45,153.34 324.96,143.99C326.44,140.9 328.5,138.32 330.55,135.6C333.18,132.12 332.48,127.11 330.42,123.55C327.587,118.637 323.397,115.047 317.85,112.78C313.9,111.17 311.21,110.14 307.46,113.14C305.3,114.87 302.64,114.74 300.38,116.12ZM288.01,182.69C288.037,184.377 287.303,184.837 285.81,184.07C283.93,183.103 282.263,181.787 280.81,180.12C275.09,173.54 267.91,182.46 273.68,188.03C276.647,190.89 279.943,192.767 283.57,193.66C287.32,194.58 291.3,193.2 295.19,193.7C297.68,194.02 300.22,194.58 302.71,194.18C307.48,193.41 312.76,191.26 315.65,186.99C317.097,184.85 317.33,182.627 316.35,180.32C315.04,177.25 310.91,177.87 309.13,180.05C307.75,181.75 306.113,183.047 304.22,183.94C304.133,183.98 304.038,184 303.943,184C303.658,184 303.403,183.819 303.31,183.55C302.263,180.323 302.95,177.633 305.37,175.48C308.52,172.67 312.49,168.56 311.32,163.99C310.19,159.56 305.18,157.06 300.96,157.07C297.153,157.083 293.317,157.027 289.45,156.9C284.61,156.74 280.54,159.14 276.72,162.11C273.66,164.48 273.06,168.19 276.07,170.88C278.98,173.48 282.34,175.52 285.67,177.46C287.072,178.278 287.949,179.77 287.98,181.39L288.01,182.69Z" style="fill:rgb(54,218,154);fill-rule:nonzero;"/>
    <path d="M232.06,116.14L230.25,113.56C229.877,113.04 229.716,112.396 229.8,111.76C230.247,108.333 231.967,105.967 234.96,104.66C237.21,103.67 239.29,103.71 241.26,105.15C243.747,106.983 246.48,108.45 249.46,109.55C252.71,110.75 254.67,113.17 255.99,116.34C257.203,119.253 258.393,122.153 259.56,125.04C261.247,129.207 261.953,133.77 261.68,138.73C261.45,143.09 261.02,147.53 255.84,148.02C248.73,148.68 239.77,147.83 235.17,141.82C230.75,136.04 227.79,128.47 230.93,121.16C231.443,119.967 231.893,118.763 232.28,117.55C232.433,117.043 232.36,116.573 232.06,116.14Z" style="fill-rule:nonzero;"/>
    <path d="M300.38,116.12C302.64,114.74 305.3,114.87 307.46,113.14C311.21,110.14 313.9,111.17 317.85,112.78C323.397,115.047 327.587,118.637 330.42,123.55C332.48,127.11 333.18,132.12 330.55,135.6C328.5,138.32 326.44,140.9 324.96,143.99C320.45,153.34 313.48,151.22 306.4,146.85C302.04,144.163 299.463,140.36 298.67,135.44C298,131.32 296.1,118.73 300.38,116.12Z" style="fill-rule:nonzero;"/>
    <path d="M288.01,182.69L287.98,181.39C287.949,179.77 287.072,178.278 285.67,177.46C282.34,175.52 278.98,173.48 276.07,170.88C273.06,168.19 273.66,164.48 276.72,162.11C280.54,159.14 284.61,156.74 289.45,156.9C293.317,157.027 297.153,157.083 300.96,157.07C305.18,157.06 310.19,159.56 311.32,163.99C312.49,168.56 308.52,172.67 305.37,175.48C302.95,177.633 302.263,180.323 303.31,183.55C303.403,183.819 303.658,184 303.943,184C304.038,184 304.133,183.98 304.22,183.94C306.113,183.047 307.75,181.75 309.13,180.05C310.91,177.87 315.04,177.25 316.35,180.32C317.33,182.627 317.097,184.85 315.65,186.99C312.76,191.26 307.48,193.41 302.71,194.18C300.22,194.58 297.68,194.02 295.19,193.7C291.3,193.2 287.32,194.58 283.57,193.66C279.943,192.767 276.647,190.89 273.68,188.03C267.91,182.46 275.09,173.54 280.81,180.12C282.263,181.787 283.93,183.103 285.81,184.07C287.303,184.837 288.037,184.377 288.01,182.69Z" style="fill-rule:nonzero;"/>
    <path d="M151.68,219.95C155.253,220.763 159.01,221.31 162.95,221.59C169.203,222.03 172.973,222.323 174.26,222.47C192.09,224.54 208.15,224.96 225.67,225.79C240.81,226.5 255.57,226.17 270.8,225.97C277.493,225.877 283.937,225.603 290.13,225.15C306.08,223.99 320.57,221.8 335.28,220.32C336.407,220.207 337.48,219.86 338.5,219.28C344.85,217.95 351.3,216.95 357.45,215.38C368.983,212.453 379.607,209.3 389.32,205.92C393.22,204.56 397.68,203.65 398.99,209.03C401.27,218.4 399.74,226.62 399.31,235.34C398.183,258.333 397.133,285.667 396.16,317.34C395.933,324.82 395.93,331.467 396.15,337.28C396.5,346.58 396.33,355.85 396.78,365.25C397.227,374.37 397.633,383.587 398,392.9C398.17,397.19 397.91,401.16 397.86,405.34C397.853,406.467 397.633,407.47 397.2,408.35C393.553,415.783 389.683,421.213 385.59,424.64C380.63,428.8 375.88,433.26 370.78,437.09C356.62,447.72 340.21,457.08 324.52,463.89C308.82,470.71 291.08,478.57 276.52,482.9C271.453,484.407 266.587,485.91 261.92,487.41C260.227,487.957 258.543,488.693 256.87,489.62C248.1,494.47 228.57,485.33 220.28,480.97C215.313,478.357 210.167,475.713 204.84,473.04C192.847,467.013 180.577,460.13 168.03,452.39C155.44,444.61 143.34,434.88 131.67,425.57C129.29,423.67 125.53,421.02 125.25,417.65C123.95,401.92 122.41,384.75 121.84,368.01C121.307,352.523 120.55,339.027 119.57,327.52C118.58,315.91 117.52,305.21 117.8,293.57C118.033,284.017 117.9,275.857 117.4,269.09C117.093,264.89 116.933,261.03 116.92,257.51C116.88,250.36 116.36,243.4 116.22,236.06C116.11,230.58 114.84,224.92 115.83,219.09C116.037,217.865 117.167,216.994 118.41,217.1L151.68,219.95ZM381.41,244.97C380.67,243.203 381.16,241.98 382.88,241.3C386.6,239.82 390.083,239.267 393.33,239.64C393.77,239.693 393.997,239.497 394.01,239.05C394.17,233.917 394.507,228.757 395.02,223.57C395.41,219.59 395.22,215.23 394.3,211.31C394.06,210.297 393.45,209.963 392.47,210.31C383.057,213.63 372.797,216.76 361.69,219.7C349.53,222.91 336.4,224.72 323.58,226.99C318.093,227.957 310.813,228.69 301.74,229.19C295.68,229.53 289.71,230.65 283.71,230.87C276.65,231.137 269.407,231.473 261.98,231.88C256.12,232.2 250.3,232 244.49,231.93C239.83,231.877 235.513,231.707 231.54,231.42C216.39,230.33 200.96,230.33 185.68,228.82C164.35,226.72 143.81,224.09 121.9,222.52C121.44,222.487 121.247,222.697 121.32,223.15C121.993,227.323 122.36,231.423 122.42,235.45C122.49,240.5 123.43,245.65 123.42,250.57C123.41,258.53 122.88,266.45 122.92,274.5C122.967,284.033 123.017,293.803 123.07,303.81C123.09,307.923 123.563,314.987 124.49,325C125.597,336.987 126.487,352.807 127.16,372.46C127.63,386.39 129.05,401.02 130.26,415.32C130.407,417.053 131.2,418.507 132.64,419.68C148.3,432.44 164.26,444.61 182.04,454.71C191.32,459.977 199.613,464.487 206.92,468.24C213.907,471.827 220.93,475.403 227.99,478.97C233.457,481.737 239.187,483.747 245.18,485C248.29,485.66 251.7,485.34 254.5,484.37C265.04,480.74 276.55,477.84 286.18,474.19C297.7,469.81 309.48,464.69 321.06,459.69C328.873,456.317 337.02,452.223 345.5,447.41C359.58,439.42 370.6,430.93 382.23,420.69C389.257,414.497 392.82,406.777 392.92,397.53C392.973,393.083 392.687,385.347 392.06,374.32C390.54,347.68 390.63,320.81 391.72,294.25C392.42,277.357 393.047,261.167 393.6,245.68C393.62,245.093 393.353,244.897 392.8,245.09C389.39,246.25 386.14,246.46 382.3,245.7C381.9,245.624 381.565,245.349 381.41,244.97Z" style="fill-rule:nonzero;"/>
    <path d="M382.3,245.7C386.14,246.46 389.39,246.25 392.8,245.09C393.353,244.897 393.62,245.093 393.6,245.68C393.047,261.167 392.42,277.357 391.72,294.25C390.63,320.81 390.54,347.68 392.06,374.32C392.687,385.347 392.973,393.083 392.92,397.53C392.82,406.777 389.257,414.497 382.23,420.69C370.6,430.93 359.58,439.42 345.5,447.41C337.02,452.223 328.873,456.317 321.06,459.69C309.48,464.69 297.7,469.81 286.18,474.19C276.55,477.84 265.04,480.74 254.5,484.37C251.7,485.34 248.29,485.66 245.18,485C239.187,483.747 233.457,481.737 227.99,478.97C220.93,475.403 213.907,471.827 206.92,468.24C199.613,464.487 191.32,459.977 182.04,454.71C164.26,444.61 148.3,432.44 132.64,419.68C131.2,418.507 130.407,417.053 130.26,415.32C129.05,401.02 127.63,386.39 127.16,372.46C126.487,352.807 125.597,336.987 124.49,325C123.563,314.987 123.09,307.923 123.07,303.81C123.017,293.803 122.967,284.033 122.92,274.5C122.88,266.45 123.41,258.53 123.42,250.57C123.43,245.65 122.49,240.5 122.42,235.45C122.36,231.423 121.993,227.323 121.32,223.15C121.247,222.697 121.44,222.487 121.9,222.52C143.81,224.09 164.35,226.72 185.68,228.82C200.96,230.33 216.39,230.33 231.54,231.42C235.513,231.707 239.83,231.877 244.49,231.93C250.3,232 256.12,232.2 261.98,231.88C269.407,231.473 276.65,231.137 283.71,230.87C289.71,230.65 295.68,229.53 301.74,229.19C310.813,228.69 318.093,227.957 323.58,226.99C336.4,224.72 349.53,222.91 361.69,219.7C372.797,216.76 383.057,213.63 392.47,210.31C393.45,209.963 394.06,210.297 394.3,211.31C395.22,215.23 395.41,219.59 395.02,223.57C394.507,228.757 394.17,233.917 394.01,239.05C393.997,239.497 393.77,239.693 393.33,239.64C390.083,239.267 386.6,239.82 382.88,241.3C381.16,241.98 380.67,243.203 381.41,244.97C381.565,245.349 381.9,245.624 382.3,245.7ZM373.277,246.749C373.277,246.749 373.277,246.749 373.277,246.749C372.966,244.91 369.452,243.948 365.493,244.618C361.534,245.287 358.531,247.352 358.842,249.191C358.843,249.191 358.843,249.191 358.843,249.191C359.154,251.03 362.668,251.992 366.627,251.322C370.586,250.653 373.589,248.588 373.277,246.749ZM345.04,253.39L344.58,249.96C344.487,249.274 343.895,248.757 343.203,248.757C343.138,248.757 343.074,248.761 343.01,248.77L335.24,249.82C330.419,250.472 326.601,252.095 326.779,253.416C326.78,253.417 326.78,253.419 326.78,253.42L326.96,254.79C326.96,254.79 326.96,254.791 326.96,254.791C327.139,256.112 331.254,256.663 336.076,256.011C336.077,256.01 336.079,256.01 336.08,256.01L343.85,254.96C344.536,254.867 345.053,254.275 345.053,253.583C345.053,253.518 345.049,253.454 345.04,253.39ZM132.5,257.94L149.08,257.88C149.815,257.88 150.42,257.275 150.42,256.54L150.41,254.83C150.41,254.829 150.41,254.828 150.41,254.827C150.404,253.198 146.102,251.872 140.88,251.89L140.66,251.89C135.441,251.908 131.15,253.262 131.15,254.89L131.16,256.6C131.16,257.335 131.765,257.94 132.5,257.94ZM308.737,256.109C308.566,254.152 304.549,252.881 299.838,253.294C299.838,253.294 299.838,253.294 299.838,253.294C295.127,253.706 291.392,255.655 291.563,257.611C291.563,257.611 291.563,257.611 291.563,257.611C291.734,259.568 295.751,260.839 300.462,260.426C300.462,260.426 300.462,260.426 300.462,260.426C305.173,260.014 308.908,258.065 308.737,256.109C308.737,256.109 308.737,256.109 308.737,256.109ZM175.124,257.893C175.212,256.36 174.023,255.025 172.49,254.937L161.668,254.313C160.134,254.224 158.8,255.414 158.711,256.947L158.696,257.207C158.608,258.74 159.797,260.075 161.33,260.163L172.152,260.787C173.686,260.876 175.02,259.686 175.109,258.153L175.124,257.893ZM190.61,255.4C190.192,255.399 189.781,255.509 189.42,255.72L185.25,258.16C184.528,258.58 184.083,259.355 184.083,260.19C184.083,261.48 185.144,262.54 186.433,262.54C186.449,262.54 186.464,262.54 186.48,262.54L199.33,262.29C200.603,262.267 201.638,261.214 201.638,259.94C201.638,259.752 201.615,259.563 201.57,259.38L201.04,257.22C200.784,256.177 199.844,255.436 198.77,255.43L190.61,255.4ZM233.763,257.972C233.662,256.363 232.311,255.094 230.699,255.094C230.635,255.094 230.571,255.096 230.507,255.1L219.189,255.812C217.581,255.914 216.312,257.265 216.312,258.876C216.312,258.941 216.314,259.005 216.318,259.069L216.337,259.368C216.438,260.977 217.789,262.246 219.401,262.246C219.465,262.246 219.529,262.244 219.593,262.24L230.911,261.528C232.519,261.426 233.788,260.075 233.788,258.464C233.788,258.399 233.786,258.335 233.782,258.271L233.763,257.972ZM270.882,258.168C270.806,256.606 269.5,255.362 267.936,255.362C267.888,255.362 267.84,255.364 267.792,255.366L254.388,256.022C252.771,256.101 251.506,257.496 251.585,259.112L251.598,259.372C251.674,260.934 252.98,262.178 254.544,262.178C254.592,262.178 254.64,262.176 254.689,262.174L268.092,261.519C269.709,261.439 270.974,260.044 270.895,258.428L270.882,258.168Z" style="fill:white;fill-rule:nonzero;"/>
    <g transform="matrix(0.985996,-0.166769,0.166769,0.985996,366.06,247.97)">
        <ellipse cx="0" cy="0" rx="7.32" ry="3.4"/>
    </g>
    <path d="M345.04,253.39C345.049,253.454 345.053,253.518 345.053,253.583C345.053,254.275 344.536,254.867 343.85,254.96L336.08,256.01C336.079,256.01 336.077,256.01 336.076,256.011C331.254,256.663 327.139,256.112 326.96,254.791C326.96,254.791 326.96,254.79 326.96,254.79L326.78,253.42C326.78,253.419 326.78,253.417 326.779,253.416C326.601,252.095 330.419,250.472 335.24,249.82L343.01,248.77C343.074,248.761 343.138,248.757 343.203,248.757C343.895,248.757 344.487,249.274 344.58,249.96L345.04,253.39Z" style="fill-rule:nonzero;"/>
    <path d="M132.5,257.94C131.765,257.94 131.16,257.335 131.16,256.6L131.15,254.89C131.15,253.262 135.441,251.908 140.66,251.89L140.88,251.89C146.102,251.872 150.404,253.198 150.41,254.827C150.41,254.828 150.41,254.829 150.41,254.83L150.42,256.54C150.42,257.275 149.815,257.88 149.08,257.88L132.5,257.94Z" style="fill-rule:nonzero;"/>
    <g transform="matrix(0.996195,-0.0871557,0.0871557,0.996195,300.15,256.86)">
        <ellipse cx="0" cy="0" rx="8.62" ry="3.58"/>
    </g>
    <g transform="matrix(0.998342,0.057564,-0.057564,0.998342,166.91,257.55)">
        <path d="M8.22,-0.13L8.22,0.13C8.22,1.675 6.965,2.93 5.42,2.93L-5.42,2.93C-6.965,2.93 -8.22,1.675 -8.22,0.13L-8.22,-0.13C-8.22,-1.675 -6.965,-2.93 -5.42,-2.93L5.42,-2.93C6.965,-2.93 8.22,-1.675 8.22,-0.13Z"/>
    </g>
    <path d="M190.61,255.4L198.77,255.43C199.844,255.436 200.784,256.177 201.04,257.22L201.57,259.38C201.615,259.563 201.638,259.752 201.638,259.94C201.638,261.214 200.603,262.267 199.33,262.29L186.48,262.54C186.464,262.54 186.449,262.54 186.433,262.54C185.144,262.54 184.083,261.48 184.083,260.19C184.083,259.355 184.528,258.58 185.25,258.16L189.42,255.72C189.781,255.509 190.192,255.399 190.61,255.4Z" style="fill-rule:nonzero;"/>
    <g transform="matrix(0.998027,-0.0627905,0.0627905,0.998027,225.05,258.67)">
        <path d="M8.74,-0.15L8.74,0.15C8.74,1.844 7.364,3.22 5.67,3.22L-5.67,3.22C-7.364,3.22 -8.74,1.844 -8.74,0.15L-8.74,-0.15C-8.74,-1.844 -7.364,-3.22 -5.67,-3.22L5.67,-3.22C7.364,-3.22 8.74,-1.844 8.74,-0.15Z"/>
    </g>
    <g transform="matrix(0.998806,-0.0488498,0.0488498,0.998806,261.24,258.77)">
        <path d="M9.66,-0.13L9.66,0.13C9.66,1.758 8.338,3.08 6.71,3.08L-6.71,3.08C-8.338,3.08 -9.66,1.758 -9.66,0.13L-9.66,-0.13C-9.66,-1.758 -8.338,-3.08 -6.71,-3.08L6.71,-3.08C8.338,-3.08 9.66,-1.758 9.66,-0.13Z"/>
    </g>
</svg>
